<?xml version="1.0" encoding="UTF-8"?>
<svg xmlns="http://www.w3.org/2000/svg" viewBox="0 0 28 28">
	<style>
		.fill{
		fill: #fff;
		}
	</style>
	<path class="fill"
		d="M14,4.82c3,0,3.34,0,4.52.07a6.32,6.32,0,0,1,2.08.38A3.72,3.72,0,0,1,22.73,7.4a6.32,6.32,0,0,1,.38,2.08c.06,1.18.07,1.53.07,4.52s0,3.34-.07,4.52a6.32,6.32,0,0,1-.38,2.08,3.72,3.72,0,0,1-2.13,2.13,6.32,6.32,0,0,1-2.08.38c-1.18.05-1.53.07-4.52.07s-3.34,0-4.52-.07a6.32,6.32,0,0,1-2.08-.38A3.72,3.72,0,0,1,5.27,20.6a6.32,6.32,0,0,1-.38-2.08C4.83,17.34,4.82,17,4.82,14s0-3.34.07-4.52A6.32,6.32,0,0,1,5.27,7.4,3.72,3.72,0,0,1,7.4,5.27a6.32,6.32,0,0,1,2.08-.38c1.18,0,1.53-.07,4.52-.07m0-2c-3,0-3.42,0-4.62.06a8.49,8.49,0,0,0-2.71.52,5.4,5.4,0,0,0-2,1.3,5.4,5.4,0,0,0-1.3,2,8.49,8.49,0,0,0-.52,2.71C2.82,10.58,2.81,11,2.81,14s0,3.42.06,4.62a8.49,8.49,0,0,0,.52,2.71,5.4,5.4,0,0,0,1.3,2,5.4,5.4,0,0,0,2,1.3,8.49,8.49,0,0,0,2.71.52c1.2.05,1.58.06,4.62.06s3.42,0,4.62-.06a8.49,8.49,0,0,0,2.71-.52,5.83,5.83,0,0,0,3.28-3.28,8.49,8.49,0,0,0,.52-2.71c.05-1.2.06-1.58.06-4.62s0-3.42-.06-4.62a8.49,8.49,0,0,0-.52-2.71,5.4,5.4,0,0,0-1.3-2,5.4,5.4,0,0,0-2-1.3,8.49,8.49,0,0,0-2.71-.52C17.42,2.82,17,2.81,14,2.81" />
	<path class="fill"
		d="M14,8.25A5.75,5.75,0,1,0,19.75,14,5.76,5.76,0,0,0,14,8.25m0,9.48A3.73,3.73,0,1,1,17.73,14,3.73,3.73,0,0,1,14,17.73" />
	<path class="fill" d="M21.32,8A1.35,1.35,0,1,1,20,6.68,1.34,1.34,0,0,1,21.32,8" />
</svg>